<svg width="159" height="16" viewBox="0 0 159 16" fill="none" xmlns="http://www.w3.org/2000/svg">
<path d="M13.53 15H12.03C11.8567 15 11.7167 14.9567 11.61 14.87C11.5033 14.7833 11.4233 14.6733 11.37 14.54L10.03 11.08H3.6L2.26 14.54C2.21333 14.66 2.13333 14.7667 2.02 14.86C1.90667 14.9533 1.76667 15 1.6 15H0.1L5.83 0.669999H7.8L13.53 15ZM4.14 9.68H9.49L7.24 3.85C7.09333 3.49 6.95 3.04 6.81 2.5C6.73667 2.77333 6.66333 3.02667 6.59 3.26C6.52333 3.48667 6.45667 3.68667 6.39 3.86L4.14 9.68ZM20.3373 13.46C20.9307 13.46 21.4607 13.36 21.9273 13.16C22.394 12.96 22.7873 12.68 23.1073 12.32C23.434 11.96 23.6807 11.53 23.8473 11.03C24.0207 10.53 24.1073 9.98 24.1073 9.38V0.669999H26.0373V9.38C26.0373 10.2067 25.904 10.9733 25.6373 11.68C25.3773 12.3867 25.0007 13 24.5073 13.52C24.0207 14.0333 23.424 14.4367 22.7173 14.73C22.0107 15.0233 21.2173 15.17 20.3373 15.17C19.4573 15.17 18.664 15.0233 17.9573 14.73C17.2507 14.4367 16.6507 14.0333 16.1573 13.52C15.664 13 15.284 12.3867 15.0173 11.68C14.7573 10.9733 14.6273 10.2067 14.6273 9.38V0.669999H16.5573V9.37C16.5573 9.97 16.6407 10.52 16.8073 11.02C16.9807 11.52 17.2273 11.95 17.5473 12.31C17.874 12.67 18.2707 12.9533 18.7373 13.16C19.2107 13.36 19.744 13.46 20.3373 13.46ZM41.7967 7.84C41.7967 8.91333 41.6267 9.89 41.2867 10.77C40.9467 11.65 40.4667 12.4033 39.8467 13.03C39.2267 13.6567 38.4834 14.1433 37.6167 14.49C36.7501 14.83 35.7901 15 34.7367 15H29.3767V0.669999H34.7367C35.7901 0.669999 36.7501 0.843333 37.6167 1.19C38.4834 1.53 39.2267 2.01667 39.8467 2.65C40.4667 3.27667 40.9467 4.03 41.2867 4.91C41.6267 5.79 41.7967 6.76667 41.7967 7.84ZM39.8067 7.84C39.8067 6.96 39.6867 6.17333 39.4467 5.48C39.2067 4.78667 38.8667 4.2 38.4267 3.72C37.9867 3.24 37.4534 2.87333 36.8267 2.62C36.2001 2.36667 35.5034 2.24 34.7367 2.24H31.3267V13.43H34.7367C35.5034 13.43 36.2001 13.3033 36.8267 13.05C37.4534 12.7967 37.9867 12.4333 38.4267 11.96C38.8667 11.48 39.2067 10.8933 39.4467 10.2C39.6867 9.50667 39.8067 8.72 39.8067 7.84ZM46.7353 15H44.7953V0.669999H46.7353V15ZM63.8781 7.84C63.8781 8.91333 63.7081 9.9 63.3681 10.8C63.0281 11.6933 62.5481 12.4633 61.9281 13.11C61.3081 13.7567 60.5615 14.26 59.6881 14.62C58.8215 14.9733 57.8615 15.15 56.8081 15.15C55.7548 15.15 54.7948 14.9733 53.9281 14.62C53.0615 14.26 52.3181 13.7567 51.6981 13.11C51.0781 12.4633 50.5981 11.6933 50.2581 10.8C49.9181 9.9 49.7481 8.91333 49.7481 7.84C49.7481 6.76667 49.9181 5.78333 50.2581 4.89C50.5981 3.99 51.0781 3.21667 51.6981 2.57C52.3181 1.91667 53.0615 1.41 53.9281 1.05C54.7948 0.689999 55.7548 0.509999 56.8081 0.509999C57.8615 0.509999 58.8215 0.689999 59.6881 1.05C60.5615 1.41 61.3081 1.91667 61.9281 2.57C62.5481 3.21667 63.0281 3.99 63.3681 4.89C63.7081 5.78333 63.8781 6.76667 63.8781 7.84ZM61.8881 7.84C61.8881 6.96 61.7681 6.17 61.5281 5.47C61.2881 4.77 60.9481 4.18 60.5081 3.7C60.0681 3.21333 59.5348 2.84 58.9081 2.58C58.2815 2.32 57.5815 2.19 56.8081 2.19C56.0415 2.19 55.3448 2.32 54.7181 2.58C54.0915 2.84 53.5548 3.21333 53.1081 3.7C52.6681 4.18 52.3281 4.77 52.0881 5.47C51.8481 6.17 51.7281 6.96 51.7281 7.84C51.7281 8.72 51.8481 9.51 52.0881 10.21C52.3281 10.9033 52.6681 11.4933 53.1081 11.98C53.5548 12.46 54.0915 12.83 54.7181 13.09C55.3448 13.3433 56.0415 13.47 56.8081 13.47C57.5815 13.47 58.2815 13.3433 58.9081 13.09C59.5348 12.83 60.0681 12.46 60.5081 11.98C60.9481 11.4933 61.2881 10.9033 61.5281 10.21C61.7681 9.51 61.8881 8.72 61.8881 7.84ZM82.5752 0.43V15H79.5952V6.62C79.5952 6.42667 79.5985 6.21667 79.6052 5.99C79.6185 5.76333 79.6385 5.53333 79.6652 5.3L75.7952 12.79C75.6752 13.0233 75.5118 13.2 75.3052 13.32C75.1052 13.44 74.8752 13.5 74.6152 13.5H74.1552C73.8952 13.5 73.6618 13.44 73.4552 13.32C73.2552 13.2 73.0952 13.0233 72.9752 12.79L69.1052 5.28C69.1252 5.52 69.1418 5.75667 69.1552 5.99C69.1685 6.21667 69.1752 6.42667 69.1752 6.62V15H66.1952V0.43H68.7752C68.9218 0.43 69.0485 0.433333 69.1552 0.439999C69.2685 0.446666 69.3685 0.466666 69.4552 0.5C69.5418 0.533333 69.6185 0.586666 69.6852 0.66C69.7585 0.726666 69.8285 0.823333 69.8952 0.949999L73.6452 8.34C73.7785 8.59333 73.9052 8.85667 74.0252 9.13C74.1518 9.40333 74.2718 9.68333 74.3852 9.97C74.4985 9.67667 74.6152 9.39 74.7352 9.11C74.8618 8.83 74.9952 8.56333 75.1352 8.31L78.8752 0.949999C78.9418 0.823333 79.0085 0.726666 79.0752 0.66C79.1485 0.586666 79.2285 0.533333 79.3152 0.5C79.4018 0.466666 79.4985 0.446666 79.6052 0.439999C79.7185 0.433333 79.8485 0.43 79.9952 0.43H82.5752ZM93.0944 9.43L91.7444 5.44C91.6444 5.18667 91.5377 4.89 91.4244 4.55C91.311 4.20333 91.1977 3.83 91.0844 3.43C90.9844 3.83667 90.8777 4.21333 90.7644 4.56C90.651 4.90667 90.5444 5.20667 90.4444 5.46L89.1044 9.43H93.0944ZM98.4644 15H95.8444C95.551 15 95.3144 14.9333 95.1344 14.8C94.9544 14.66 94.8177 14.4833 94.7244 14.27L93.8644 11.73H88.3244L87.4644 14.27C87.391 14.4567 87.2577 14.6267 87.0644 14.78C86.8777 14.9267 86.6444 15 86.3644 15H83.7244L89.3644 0.43H92.8244L98.4644 15ZM107.663 3.39C107.563 3.55 107.456 3.67 107.343 3.75C107.236 3.83 107.096 3.87 106.923 3.87C106.77 3.87 106.603 3.82333 106.423 3.73C106.25 3.63 106.05 3.52 105.823 3.4C105.603 3.28 105.35 3.17333 105.063 3.08C104.776 2.98 104.45 2.93 104.083 2.93C103.45 2.93 102.976 3.06667 102.663 3.34C102.356 3.60667 102.203 3.97 102.203 4.43C102.203 4.72333 102.296 4.96667 102.483 5.16C102.67 5.35333 102.913 5.52 103.213 5.66C103.52 5.8 103.866 5.93 104.253 6.05C104.646 6.16333 105.046 6.29333 105.453 6.44C105.86 6.58 106.256 6.74667 106.643 6.94C107.036 7.13333 107.383 7.38 107.683 7.68C107.99 7.98 108.236 8.34667 108.423 8.78C108.61 9.20667 108.703 9.72333 108.703 10.33C108.703 11.0033 108.586 11.6333 108.353 12.22C108.12 12.8067 107.78 13.32 107.333 13.76C106.893 14.1933 106.346 14.5367 105.693 14.79C105.046 15.0367 104.31 15.16 103.483 15.16C103.03 15.16 102.566 15.1133 102.093 15.02C101.626 14.9267 101.173 14.7967 100.733 14.63C100.293 14.4567 99.8798 14.2533 99.4931 14.02C99.1065 13.7867 98.7698 13.5267 98.4831 13.24L99.4831 11.66C99.5631 11.5467 99.6665 11.4533 99.7931 11.38C99.9265 11.3 100.07 11.26 100.223 11.26C100.423 11.26 100.623 11.3233 100.823 11.45C101.03 11.5767 101.26 11.7167 101.513 11.87C101.773 12.0233 102.07 12.1633 102.403 12.29C102.736 12.4167 103.13 12.48 103.583 12.48C104.196 12.48 104.673 12.3467 105.013 12.08C105.353 11.8067 105.523 11.3767 105.523 10.79C105.523 10.45 105.43 10.1733 105.243 9.96C105.056 9.74667 104.81 9.57 104.503 9.43C104.203 9.29 103.86 9.16667 103.473 9.06C103.086 8.95333 102.69 8.83667 102.283 8.71C101.876 8.57667 101.48 8.41667 101.093 8.23C100.706 8.03667 100.36 7.78667 100.053 7.48C99.7531 7.16667 99.5098 6.78 99.3231 6.32C99.1365 5.85333 99.0431 5.28 99.0431 4.6C99.0431 4.05333 99.1531 3.52 99.3731 3C99.5931 2.48 99.9165 2.01667 100.343 1.61C100.77 1.20333 101.293 0.879999 101.913 0.639999C102.533 0.393333 103.243 0.27 104.043 0.27C104.49 0.27 104.923 0.306666 105.343 0.38C105.77 0.446666 106.173 0.549999 106.553 0.689999C106.933 0.823333 107.286 0.986666 107.613 1.18C107.946 1.36667 108.243 1.58 108.503 1.82L107.663 3.39ZM121.157 3.11H117.057V15H113.677V3.11H109.577V0.43H121.157V3.11ZM126.275 3.03V6.43H130.855V8.93H126.275V12.4H132.255V15H122.875V0.43H132.255V3.03H126.275ZM139.08 7.28C139.54 7.28 139.93 7.22333 140.25 7.11C140.576 6.99 140.843 6.82667 141.05 6.62C141.256 6.41333 141.406 6.17333 141.5 5.9C141.593 5.62 141.64 5.32 141.64 5C141.64 4.36 141.43 3.86 141.01 3.5C140.596 3.14 139.953 2.96 139.08 2.96H137.72V7.28H139.08ZM146.26 15H143.2C142.633 15 142.226 14.7867 141.98 14.36L139.56 10.13C139.446 9.95 139.32 9.82 139.18 9.74C139.04 9.65333 138.84 9.61 138.58 9.61H137.72V15H134.34V0.43H139.08C140.133 0.43 141.03 0.54 141.77 0.76C142.516 0.973333 143.123 1.27333 143.59 1.66C144.063 2.04667 144.406 2.50333 144.62 3.03C144.833 3.55667 144.94 4.13 144.94 4.75C144.94 5.22333 144.876 5.67 144.75 6.09C144.623 6.51 144.436 6.9 144.19 7.26C143.943 7.61333 143.636 7.93 143.27 8.21C142.91 8.49 142.493 8.72 142.02 8.9C142.24 9.01333 142.446 9.15667 142.64 9.33C142.833 9.49667 143.006 9.69667 143.16 9.93L146.26 15ZM153.683 9.46V15H150.303V9.46L145.023 0.43H148.003C148.296 0.43 148.526 0.5 148.693 0.639999C148.866 0.773333 149.01 0.946666 149.123 1.16L151.183 5.4C151.356 5.73333 151.513 6.04667 151.653 6.34C151.793 6.62667 151.916 6.91 152.023 7.19C152.123 6.90333 152.236 6.61667 152.363 6.33C152.496 6.03667 152.65 5.72667 152.823 5.4L154.863 1.16C154.91 1.07333 154.966 0.986666 155.033 0.899999C155.1 0.813332 155.176 0.736666 155.263 0.669999C155.356 0.596666 155.46 0.539999 155.573 0.5C155.693 0.453333 155.823 0.43 155.963 0.43H158.963L153.683 9.46Z" fill="white"/>
</svg>
