<?xml version="1.0" encoding="UTF-8" standalone="no"?>
<!-- Created with Inkscape (http://www.inkscape.org/) -->

<svg
   width="210mm"
   height="297mm"
   viewBox="0 0 210 297"
   version="1.1"
   id="svg5"
   inkscape:version="1.2.1 (9c6d41e, 2022-07-14)"
   sodipodi:docname="inkscape-project-border.svg"
   xmlns:inkscape="http://www.inkscape.org/namespaces/inkscape"
   xmlns:sodipodi="http://sodipodi.sourceforge.net/DTD/sodipodi-0.dtd"
   xmlns="http://www.w3.org/2000/svg"
   xmlns:svg="http://www.w3.org/2000/svg">
  <sodipodi:namedview
     id="namedview7"
     pagecolor="#ffffff"
     bordercolor="#000000"
     borderopacity="0.25"
     inkscape:showpageshadow="2"
     inkscape:pageopacity="0.0"
     inkscape:pagecheckerboard="0"
     inkscape:deskcolor="#d1d1d1"
     inkscape:document-units="mm"
     showgrid="false"
     inkscape:zoom="1.2938725"
     inkscape:cx="391.07409"
     inkscape:cy="331.94925"
     inkscape:window-width="2407"
     inkscape:window-height="1205"
     inkscape:window-x="150"
     inkscape:window-y="136"
     inkscape:window-maximized="0"
     inkscape:current-layer="layer1" />
  <defs
     id="defs2" />
  <g
     inkscape:label="Warstwa 1"
     inkscape:groupmode="layer"
     id="layer1">
    <path
       style="fill:#fddd00;fill-opacity:1;stroke:none;stroke-width:0.264583"
       d="M 53.934275,80.973709 C 41.278581,80.791794 31.377313,96.879258 31.377313,96.879258 l 22.62926,2e-6 z"
       id="path236"
       sodipodi:nodetypes="cccc"
       inkscape:export-filename="lowcut-active.svg"
       inkscape:export-xdpi="96"
       inkscape:export-ydpi="96" />
    <path
       style="fill:#fddd00;fill-opacity:1;stroke:none;stroke-width:0.79375;stroke-dasharray:none;stroke-opacity:1"
       d="M 91.529211,90.372442 Z"
       id="path11385"
       inkscape:export-filename="lowshelf-active.svg"
       inkscape:export-xdpi="96"
       inkscape:export-ydpi="96" />
    <path
       style="fill:#fddd00;fill-opacity:1;stroke:#aa7d00;stroke-width:0.994;stroke-dasharray:none;stroke-opacity:1"
       d="m 127.20771,99.698878 c 0,0 5.41825,-15.53898 11.01411,-15.577005 5.59586,-0.03802 11.39825,15.721602 11.39825,15.721602"
       id="path11387"
       sodipodi:nodetypes="czc"
       inkscape:export-filename="peaking-active.svg"
       inkscape:export-xdpi="96"
       inkscape:export-ydpi="96" />
    <path
       d="M 53.934275,81.046771 C 41.278581,80.864861 31.377313,96.952321 31.377313,96.952321"
       style="fill:none;fill-opacity:1;stroke:#aa7d00;stroke-width:1.05833333;stroke-opacity:1;stroke-dasharray:none"
       id="path11397" />
    <path
       style="fill:#fddd00;fill-opacity:1;stroke:none;stroke-width:0.264583"
       d="M 53.934275,80.973709 C 41.278581,80.791794 31.377313,96.879258 31.377313,96.879258 l 22.62926,2e-6 z"
       id="path13603"
       sodipodi:nodetypes="cccc"
       inkscape:export-filename="lowcut-full.svg"
       inkscape:export-xdpi="96"
       inkscape:export-ydpi="96" />
    <path
       d="M 53.934275,81.046771 C 41.278581,80.864861 31.377313,96.952321 31.377313,96.952321"
       style="fill:none;fill-opacity:1;stroke:#aa7d00;stroke-width:1.05833333;stroke-opacity:1;stroke-dasharray:none"
       id="path13605" />
    <path
       style="fill:#fddd00;fill-opacity:1;stroke:none;stroke-width:0.264583"
       d="m 33.085528,57.661906 c 12.65569,-0.181915 22.55696,15.905549 22.55696,15.905549 l -22.62926,2e-6 z"
       id="path13607"
       sodipodi:nodetypes="cccc"
       inkscape:export-filename="highcut-active.svg"
       inkscape:export-xdpi="96"
       inkscape:export-ydpi="96" />
    <path
       d="m 32.570178,57.734968 c 12.65569,-0.18191 22.55696,15.905547 22.55696,15.905547"
       style="fill:none;fill-opacity:1;stroke:#aa7d00;stroke-width:1.05833;stroke-dasharray:none;stroke-opacity:1"
       id="path13609" />
    <path
       style="fill:#fddd00;fill-opacity:1;stroke:none;stroke-width:0.994;stroke-dasharray:none;stroke-opacity:1"
       d="m 72.59377,97.439245 7.054888,-0.357856 1.993773,-1.635916 2.300507,-7.668358 1.94265,-4.805503 3.016221,-1.533671 -0.357858,-0.562344 -15.745691,0.05112 z"
       id="path15121"
       sodipodi:nodetypes="ccccccccc"
       inkscape:label="path15121" />
    <path
       style="fill:none;fill-opacity:1;stroke:#aa7d00;stroke-width:0.994;stroke-dasharray:none;stroke-opacity:1"
       d="m 72.587145,97.096153 c 0,0 1.616433,0.11151 6.435166,0.160639 4.818733,0.04913 3.923415,-15.898208 9.831936,-15.940189 5.908521,-0.04198 6.145265,-0.0537 6.145265,-0.0537"
       id="path15119"
       sodipodi:nodetypes="czzc" />
    <path
       style="fill:#fddd00;fill-opacity:1;stroke:none;stroke-width:0.79375;stroke-dasharray:none;stroke-opacity:1"
       d="M 78.09271,67.469618 Z"
       id="path15124"
       inkscape:export-filename="lowshelf-active.svg"
       inkscape:export-xdpi="96"
       inkscape:export-ydpi="96" />
    <path
       style="fill:#fddd00;fill-opacity:1;stroke:none;stroke-width:0.994;stroke-dasharray:none;stroke-opacity:1"
       d="m 97.028151,74.536421 -7.054888,-0.357856 -1.993773,-1.635916 -2.300507,-7.668358 -1.94265,-4.805503 -3.016221,-1.533671 0.357858,-0.562344 15.745691,0.05112 z"
       id="path15126"
       sodipodi:nodetypes="ccccccccc"
       inkscape:label="path15121" />
    <path
       style="fill:none;fill-opacity:1;stroke:#aa7d00;stroke-width:0.994;stroke-dasharray:none;stroke-opacity:1"
       d="m 97.034776,74.193329 c 0,0 -1.616433,0.11151 -6.435166,0.160639 -4.818733,0.04913 -3.923415,-15.898208 -9.831936,-15.940189 -5.908521,-0.04198 -6.145265,-0.0537 -6.145265,-0.0537"
       id="path15128"
       sodipodi:nodetypes="czzc" />
  </g>
</svg>
